/* XPM */
static char *result[] = {
/* columns rows colors chars-per-pixel */
"32 32 5 1 ",
"  c #4E4A2F",
". c #6B6158",
"X c #6D6568",
"o c #6D6C72",
"O c #7D7484",
/* pixels */
"           ......               ",
"...........OOOOOO...............",
"OOOOOOOOOOOOOOOOOOOOOOOOOOOOOOOO",
"OOOOOOOOOOOOOOOOOOOOOOOOOOOOOOOO",
"OOOOOOOOOOOooooooOOOOOOOOOOOOOOO",
"oooooooooooooooooooooooooooooooo",
"oooooooooooooooooooooooooooooooo",
"oooooooooooooooooooooooooooooooo",
"XXXXooooooooooooooooooooooooooXX",
"ooooXXXXooooooooooooooooooooXXoo",
"ooooooooXXXoooooooooooooXXXXoooo",
"ooooooooooXXXXXXXXXXXXXXoooooooo",
"oooooooooooooooooooooooooooooooo",
"oooooooooooooooooooooooooooooooo",
"oooooooooooooooooooooooooooooooo",
"oooooooooooooooooooooooooooooooo",
"oooooooooooooooooooooooooooooooo",
"XXXXooooooooooooooooooooooooooXX",
"ooooXXXXooooooooooooooooooooXXoo",
"ooooooooXXXoooooooooooooXXXXoooo",
"ooooooooooXXXXXXXXXXXXXXoooooooo",
"oooooooooooooooooooooooooooooooo",
"oooooooooooooooooooooooooooooooo",
"oooooooooooooooooooooXoooooooooo",
"ooooooXooooooooooooooXoooooooooo",
"oooooXXoooooooooooooXXoooooooooo",
"oooooXXoooooooooooooXXoooooooooo",
"ooooXXXooooooooooooXXXXooooooooo",
"ooooXXXXoooooooooooXXXXooooooooo",
"oooXXXXXooooooooooXXXXXXoooooooo",
"ooXX   XXooooooooX    XXXooooooo",
"    ooo           oooo          "
};
