/* XPM */
static char *result[] = {
/* columns rows colors chars-per-pixel */
"32 32 4 1 ",
"  c #100F0A",
". c #2B1D3E",
"X c #2D284C",
"o c #373257",
/* pixels */
"           ......               ",
"...........oooooo...............",
"oooooooooooooooooooooooooooooooo",
"oooooooooooooooooooooooooooooooo",
"oooooooooooXXXXXXooooooooooooooo",
"XXXXXXXXXXXXXXXXXXXXXXXXXXXXXXXX",
"XXXXXXXXXXXXXXXXXXXXXXXXXXXXXXXX",
"XXXXXXXXXXXXXXXXXXXXXXXXXXXXXXXX",
"....XXXXXXXXXXXXXXXXXXXXXXXXXX..",
"XXXX....XXXXXXXXXXXXXXXXXXXX..XX",
"XXXXXXXX...XXXXXXXXXXXXX....XXXX",
"XXXXXXXXXX..............XXXXXXXX",
"XXXXXXXXXXXXXXXXXXXXXXXXXXXXXXXX",
"XXXXXXXXXXXXXXXXXXXXXXXXXXXXXXXX",
"XXXXXXXXXXXXXXXXXXXXXXXXXXXXXXXX",
"XXXXXXXXXXXXXXXXXXXXXXXXXXXXXXXX",
"XXXXXXXXXXXXXXXXXXXXXXXXXXXXXXXX",
"....XXXXXXXXXXXXXXXXXXXXXXXXXX..",
"XXXX....XXXXXXXXXXXXXXXXXXXX..XX",
"XXXXXXXX...XXXXXXXXXXXXX....XXXX",
"XXXXXXXXXX..............XXXXXXXX",
"XXXXXXXXXXXXXXXXXXXXXXXXXXXXXXXX",
"XXXXXXXXXXXXXXXXXXXXXXXXXXXXXXXX",
"XXXXXXXXXXXXXXXXXXXXX.XXXXXXXXXX",
"XXXXXX.XXXXXXXXXXXXXX.XXXXXXXXXX",
"XXXXX..XXXXXXXXXXXXX..XXXXXXXXXX",
"XXXXX..XXXXXXXXXXXXX..XXXXXXXXXX",
"XXXX...XXXXXXXXXXXX....XXXXXXXXX",
"XXXX....XXXXXXXXXXX....XXXXXXXXX",
"XXX.....XXXXXXXXXX......XXXXXXXX",
"XX..   ..XXXXXXXX.    ...XXXXXXX",
"    XXX           XXXX          "
};
