/* XPM */
static char *result[] = {
/* columns rows colors chars-per-pixel */
"32 32 5 1 ",
"  c black",
". c #161616",
"X c #101436",
"o c #1E103A",
"O c #2B2756",
/* pixels */
"           oooooo               ",
"oooooooooooOOOOOOooooooooooooooo",
"OOOOOOOOOOOOOOOOOOOOOOOOOOOOOOOO",
"OOOOOOOOOOOOOOOOOOOOOOOOOOOOOOOO",
"OOOOOOOOOOO      OOOOOOOOOOOOOOO",
"                                ",
"                                ",
"                                ",
"oooo                          oo",
"    oooo                    oo  ",
"        ooo             oooo    ",
"          oooooooooooooo        ",
"                                ",
"                                ",
"                                ",
"                                ",
"                                ",
"oooo                          oo",
"    oooo                    oo  ",
"        ooo             oooo    ",
"          oooooooooooooo        ",
"                                ",
"                                ",
"                     .          ",
"      .              .          ",
"     ..             ..          ",
"     ..             ..          ",
"    ...            ....         ",
"    ....           ....         ",
"   .....          ......        ",
"  ..   ..        .    ...       ",
"    XXX           XXXX          "
};
