/* XPM */
static char *Closed11709913416[] = {
/* columns rows colors chars-per-pixel */
"32 32 68 1 ",
"  c #2B2A2F",
". c #2D2A2F",
"X c #2C2B30",
"o c #2E2D32",
"O c #332E32",
"+ c #332E36",
"@ c #342F34",
"# c #333033",
"$ c #313236",
"% c #353036",
"& c #363337",
"* c #33333A",
"= c #343138",
"- c #373339",
"; c #36323A",
": c #343439",
"> c #36373B",
", c #36373C",
"< c #37373E",
"1 c #37383D",
"2 c #3A3B40",
"3 c #404047",
"4 c #414247",
"5 c #44434B",
"6 c #42454A",
"7 c #46464B",
"8 c #43434C",
"9 c #47474E",
"0 c #45484F",
"q c #494A4F",
"w c #4A4B4F",
"e c #474850",
"r c #474A50",
"t c #484850",
"y c #484B50",
"u c #4B4B53",
"i c #4B4E53",
"p c #4C4D51",
"a c #4B4B54",
"s c #4D4E57",
"d c #4C4F57",
"f c #4D5055",
"g c #4F5054",
"h c #4F5055",
"j c #4D5057",
"k c #4F5257",
"l c #4D5058",
"z c #4E5158",
"x c #4F525A",
"c c #505156",
"v c #525358",
"b c #525259",
"n c #535459",
"m c #51545B",
"M c #53545B",
"N c #50535C",
"B c #51545C",
"V c #54545D",
"C c #54575D",
"Z c #54575E",
"A c #54575F",
"S c #55585F",
"D c #555860",
"F c #575A62",
"G c #585B62",
"H c #595C63",
"J c #5A5D65",
"K c #5F6068",
/* pixels */
"X. ...O@@++@@@@@@@@=@@%@@+ooo$*$",
"X2*=$,112,O$@,1,@12,1111<,:=:9Oo",
"X2FGZK1@@%@%@@@@@=@,111116b86B@@",
"X2B00J11,5%#N@@@@BNNBBBBmmb06N@@",
"o2j34sjz<-%%BBBB@bBBBBNNxBNbbB$@",
"X1ziwZz1<$#BBBBB@@yjJGGNirsizB%%",
"o1FBzmj%%%*BBBbBNbzrys@NbiiwwsS%",
"o2zisiibB1Ozdi9ialdzy@@@zbswiim&",
"X2ZiscZbz,yNiwiwirrli>-<*xBzyyb:",
"o1Fiuiyys6ycwi9iiayiijB@$%BBiiB%",
"X2Zwuyjbi6eswiwuwyibmO@@1<@Bvim&",
"=,FiyBB96w0wiwuiyiN@@#<ws<<bbim&",
"=2SmBB@@wwiwwiuwbB@1<<iiwi1@mwm%",
"-2mm@@110wuiiwuZ%@@iyiuuis1=BjB%",
":2B#@<1yi0wywib@<<wsiwyywiy-#cm&",
"%1%%1Zs8wwwy0b$@iiyywwswiwwj1%$&",
"<<yyZZN88ayyww<,wiupiyiyuww-%@@=",
"=28ZZZN888yy0uywwwVbbiyiuii1#21=",
"@28ZNyVN88yyiywwws73bNiuuwp@%11-",
"$28ZuyyNN85wwuwuw9155cwiwwp@-jH:",
"=28DuwwyyNtyyaywy8VbiuwwiqqwwjH&",
"@28lyywryN@yyyyuwVbuuwwuwiywwjH&",
"@2NyyyywiN@9wwwwywwww9wwi0iwwsH%",
"=2NywwwwwN@5wuywuwyuuuuwwi0wwiS&",
";1Zty9yyyZ@9wwuwwuwwwiwiwwyyywb%",
"-2Fyyytwy#@wyrwwwaywwrwwwus@uub-",
"=2H0tyyym@:wwryuwuyuiw0wwiv$wim%",
":1Gyayytm%@#@wyywwyrwwwwwsc@yjH&",
"=2mwyyNN@@cmc%#7wuwwiwwwizi%ibi@",
"%2SwrrNN#Vwwjmc59iwww0wi0bw6i@@=",
":2SwwiNZZjywyacb9wwsjwwiwB#%##s%",
"--:%%-=@-:@&:%&:%&&%&&%&%*&-%&&%"
};
