/* XPM */
static char *f65c71d125a045c2863b34ac0309f32849icD5JMki5BzZ4n[] = {
/* columns rows colors chars-per-pixel */
"32 32 135 2 ",
"   c #010002",
".  c #060207",
"X  c #0B070C",
"o  c #100B0F",
"O  c #140E18",
"+  c #190B18",
"@  c #1C1615",
"#  c #1B1618",
"$  c #1C151A",
"%  c #1E181E",
"&  c #151420",
"*  c #191520",
"=  c #1E1720",
"-  c #1F1923",
";  c #1A1926",
":  c #1F1B2B",
">  c #1E1931",
",  c #201C2A",
"<  c #211C2E",
"1  c #2B1D28",
"2  c #201B32",
"3  c #201C33",
"4  c #25212D",
"5  c #262233",
"6  c #252134",
"7  c #292231",
"8  c #2B2432",
"9  c #3D393A",
"0  c #3D383D",
"q  c #342B41",
"w  c #322E41",
"e  c #362D43",
"r  c #342F46",
"t  c #342E4D",
"y  c #382F4B",
"u  c #363043",
"i  c #3C3352",
"p  c #3F3652",
"a  c #3F3654",
"s  c #3E3A52",
"d  c #3D3854",
"f  c #433C40",
"g  c #413B53",
"h  c #423956",
"j  c #424044",
"k  c #4C4854",
"l  c #5A4F58",
"z  c #5F5A5A",
"x  c #635F5E",
"c  c #65605F",
"v  c #5C5463",
"b  c #615C62",
"n  c #645F61",
"m  c #645D66",
"M  c #6D5E66",
"N  c #685768",
"B  c #666162",
"V  c #676265",
"C  c #616465",
"Z  c #646465",
"A  c #6B6163",
"S  c #686366",
"D  c #6E6365",
"F  c #6F6466",
"G  c #6B6A66",
"H  c #6B636B",
"J  c #6C626B",
"K  c #6B656A",
"L  c #6E646B",
"P  c #6D616C",
"I  c #6F606D",
"U  c #786D6B",
"Y  c #6D6970",
"T  c #6D6379",
"R  c #746E71",
"E  c #7D6E7C",
"W  c #877D7D",
"Q  c #827780",
"!  c #847782",
"~  c #837880",
"^  c #857A82",
"/  c #867C82",
"(  c #877A86",
")  c #877C86",
"_  c #897E85",
"`  c #81758B",
"'  c #837D8D",
"]  c #858081",
"[  c #878187",
"{  c #8B8085",
"}  c #8D8585",
"|  c #84808F",
" . c #8B8088",
".. c #8C858B",
"X. c #8D868F",
"o. c #8D8B8D",
"O. c #908381",
"+. c #948482",
"@. c #988D86",
"#. c #948D89",
"$. c #918B8E",
"%. c #918C8E",
"&. c #988F8D",
"*. c #92918B",
"=. c #95918B",
"-. c #92918E",
";. c #95938D",
":. c #9F958B",
">. c #9B958D",
",. c #8D8692",
"<. c #8E8993",
"1. c #928D92",
"2. c #969296",
"3. c #989393",
"4. c #9A9492",
"5. c #9A9495",
"6. c #9E9595",
"7. c #9B9A94",
"8. c #999598",
"9. c #9B979E",
"0. c #9F989A",
"q. c #A6A499",
"w. c #ABA29D",
"e. c #A3A1A6",
"r. c #B4ABA6",
"t. c #B3AFAF",
"y. c #B5AFAC",
"u. c #B2B0AD",
"i. c #BBB3AD",
"p. c #B9B4AD",
"a. c #D2C9C2",
"s. c #D3CFCC",
"d. c #D4D3CF",
"f. c #DDDCD1",
"g. c #F0EFEC",
/* pixels */
"` ` ` ` ` ` ` ` ` ` ` ` ` ` ` ` ` ` ` ` ` ` ` ` ` ` ` ` ` ` ` ` ",
"` +.O.W {  ._ _ _ / ^ ! Q Q Q ~ ( ( ) ) ) ) ) ) _ X.5.4.>.>.:.@.",
"` E s s s s s s s s s g g g g g p p i i p i p a d t k } } } } q.",
"` N s s s s s s s s s s s s s s s s s d d s d h h y Y 3.} } } q.",
"` N s s s s s s s s q : , , < < 3 2 > 2 w | ' ' T v Y d.3.} } q.",
"` N s s s s s s s s e 4 4 4 5 5 6 6 6 6 k e.9.<.,.H 0.d.d.} } q.",
"` N s s s s s s s e e 4 4 4 4 4 w w r u Y d.d.8.<.S 0.d.d.3.} q.",
"` N s s 5 ; & & & & * = % - O w Y Y Y Y 0.d.d.d...S 6.f.d.d.3.q.",
"` N s e e           % # @ $ o 6.2.o.1.1.6.f.d.d.[ S &.f.f.d.3.q.",
"` N 8 7             j 9 9 0 f &.2.2.o.%.&.f.f.d.%.B #.f.f.d.3.q.",
"` 1               . n n n n m #.y.2.o.o.#.f.f.d.3.x #.f.f.d.3.q.",
"`                 X R n n n H #.y.2.o.o.#.f.f.d.d.z =.f.f.d.d.q.",
"`       K K P l l l R R n n J =.y.2.o.o.=.f.f.d.d.B ;.f.f.f.d.q.",
"`       L K K P l l 8.R n n P ;.y.2.2.o.;.f.f.f.d.V *.f.f.f.d.q.",
"`     + L K K L P l 8.R R n J *.y.y.2.o.*.f.f.f.d.b *.f.f.f.d.q.",
"` l l l L L K K P l 8.8.R n J *.y.y.2.o.*.f.f.f.d.V -.f.f.f.d.q.",
"` l l l L L L K P l 8.8.R n M -.y.y.2.o.-.f.f.f.d.m -.f.f.f.d.q.",
"` l l l L L L K P P 8.8.R n D -.y.y.2.o.-.f.f.f.d.b *.f.f.f.d.q.",
"` l l l L L L K P P 8.8.R n D *.y.y.2.o.*.f.f.f.d.b =.f.f.f.d.q.",
"` l l l L L L K P P 8.8.R n D =.y.y.2.o.=.f.f.f.d.m *.f.f.f.d.q.",
"` l l l L L L K P P 8.8.R n F *.y.y.2.o.*.f.f.f.d.B *.f.f.f.d.q.",
"` l l l L L L K P P 8.8.R n D *.y.y.2.o.*.f.f.f.d.B *.f.f.f.d.q.",
"` l l l L L L K P P 8.8.R n A *.y.y.2.o.*.f.f.f.d.x *.f.f.f.d.q.",
"` l l l L L L K P P 8.8.R n S *.y.2.2.o.*.f.f.f.d.x -.f.f.d.d.q.",
"` l l l L L L K P P 8.8.R n S -.y.2.o.o.-.f.f.d.d.x -.f.f.d.u.q.",
"` l l l L L L K P P 8.R R n Z -.y.2.o.o.-.f.f.d.u.c -.f.f.d.u.q.",
"` l l l L L L K P P 8.R R n Z -.2.2.o.o.-.f.f.d.u.B -.f.f.d.t.q.",
"` l l l L L L K P P R R n n C -.2.2.o.o.-.f.f.d.t.V ;.f.d.d.y.q.",
"` l l l L L L K P l R n n n Z ;.2.o.o.o.;.f.d.d.y.S ;.d.d.p.y.q.",
"` l l l L L K K P l n n n n Z ;.o.o.o.o.;.d.d.p.y.S g.p.p.p.p.q.",
"` l l l L L K P l l n n n n G 7.6.6.o.$.] d.s.i.r.U a.p.p.p.p.w.",
"` ` ` ` ` ` ` ` ` ` ` ` ` ` ` ` ` ` ` ` ` ` ` ` ` ` ` ` ` ` ` ` "
};
