/* XPM */
static char *result[] = {
/* columns rows colors chars-per-pixel */
"32 32 5 1 ",
"  c black",
". c #0E081A",
"X c #100D2B",
"o c #1E103A",
"O c #2B2756",
/* pixels */
"XOOOo                           ",
"oOOOo                           ",
"OOOOo                           ",
"OOOoo                           ",
"OOoo.                           ",
"oo..                            ",
"...                             ",
"                                ",
"                                ",
"                                ",
"                                ",
"                                ",
"                                ",
"                                ",
"                                ",
"                                ",
"                                ",
"                                ",
"                                ",
"                                ",
"                                ",
"                                ",
"                                ",
"                                ",
"                                ",
"                                ",
"                                ",
"                                ",
"                                ",
"                                ",
"                                ",
"                                "
};
