/* XPM */
static char *__1709913505[] = {
/* columns rows colors chars-per-pixel */
"32 32 7 1 ",
"  c #122334",
". c #1E213B",
"X c #192543",
"o c #232348",
"O c #2D284C",
"+ c #2F2956",
"@ c #382D7C",
/* pixels */
"OOOOOOOOOOOOOOOOOOOOOOOOOOOOOOOO",
"OOOOOOOOOOOOOOOOOOOOOOOOOOOOOOOO",
"OOOOOOOOOOO@OOOOOOOOOO  OOOOOOOO",
"OOOO@@@@++@@++++++OOO@  OOOOOOOO",
"OOOOOOO@@o@+++oo++++O@OOOO@@OOOO",
"OOOOO+++o@++++oo+++++@@OO@@OOOOO",
"OOOOO++++@@+++++++XX++@@@OOO..OO",
"OOOO++++++@+++++++XX@@++++OO..OO",
"OOOO+++++++@@+++++@@@+++++++OOOO",
"OOO+++++++++@@++@@@+@@@+++++OOOO",
"OOO+++@++++++@+@@+++++++++++..OO",
"OOO+++@++++++@@+++++++++++@+o.OO",
"OOO+++@+XX++++@@oo++++++++@+@@OO",
"OOO+++@@XX++++++@@@@@++++++@@OOO",
"OO.o+++@@++++++++@++++++++@++OOO",
"OO.o++++@+++++++++@+++++@@+@+OOO",
"OOO++++++@++++++@+@@++o@@X+++OOO",
"OOO++++++@@++@@@@++@@@@@XX+++OOO",
"OOO+++++++@@@@++++++oo+@oo+++OOO",
"OOO+++++++@@++++@++@oo++@o++OOOO",
"OOO++++++@@o++++@@@@++oo@+++OOOO",
"OOOO++++@@oo++@@@@@+++oo+@++OOOO",
"OOOOOO+@++++++++++@++++++@+OOOOO",
"OOOOOO@@++++++@@+++++++++@OOOOOO",
"OOOOO@@O+++++++@@+++@@++++OOOOOO",
"OOO@@OOOO+++++++@@@@@++++OOOOOOO",
"OOOOOOOOOO++@@@@@o+@@+XX+OOOOOOO",
"OOOOOOOOOOO@@+++oo++@@@@OOOOOOOO",
"OOOOOO..OO@@+++++++++OO@@OOOOO..",
"OOOOOO..O@@OOOOOOOOOOOOOOOOOOO..",
"OOOOOOOO  OOOOOOOOOOOOOOOOOOOOOO",
"OOOOOOOO  OOOOOOOOOOOOOOOOOOOOOO"
};
