/* XPM */
static char *Open11709913506[] = {
/* columns rows colors chars-per-pixel */
"32 32 9 1 ",
"  c black",
". c #5B565F",
"X c #5E5763",
"o c #5D6866",
"O c #67666B",
"+ c #606E6B",
"@ c #6D6C72",
"# c #746D7A",
"$ c #7D7484",
/* pixels */
"$$$$$$$$$$$$$$$$$$$$$$$$$$$$$$$$",
"$$$$$$$$$$$$$$$$$$$$$$$$$$$$$$$$",
"$$$$$$$$$$$X$$$$$$$$$$++$$$$$$$$",
"$$$$XXXX##..######$$$X++$$$$$$$$",
"$$$$$$$..O.###OO####$X$$$$XX$$$$",
"$$$$$###O.####OO#####.X$$XX$$$$$",
"$$$$$####..#######oo##..X$$$@@$$",
"$$$$######.#######oo..####$$@@$$",
"$$$$#######..#####...#######$$$$",
"$$$#########..##...#...#####$$$$",
"$$$###.######.#..###########@@$$",
"$$$###.######..###########.#O@$$",
"$$$###.#oo####..OO########.#.X$$",
"$$$###..oo######.....######..$$$",
"$$@O###..########.########.##$$$",
"$$@O####.#########.#####..#.#$$$",
"$$$######.######.#..##O..o###$$$",
"$$$######..##....##.....oo###$$$",
"$$$#######....######OO#.OO###$$$",
"$$$#######..####.##.OO##.O##$$$$",
"$$$######..O####....##OO.###$$$$",
"$$$$####..OO##.....###OO#.##$$$$",
"$$$$$$#.##########.######.#$$$$$",
"$$$$$$X.######..#########.$$$$$$",
"$$$$$XX$#              ###$$$$$$",
"$$$XX$                    $$$$$$",
"$$$$$                      $$$$$",
"$$$$                        $$$$",
"$$$$                        $$@@",
"$$$$$                      $$$@@",
"$$$$$$                    $$$$$$",
"$$$$$$$$+              $$$$$$$$$"
};
