/* XPM */
static char *result[] = {
/* columns rows colors chars-per-pixel */
"32 32 5 1 ",
"  c #100F0A",
". c #4E4A2F",
"X c #6B6158",
"o c #6D6568",
"O c #7D7484",
/* pixels */
"...........oooooo...............",
"oooooooooooOOOOOOooooooooooooooo",
"OOOOOOOOOOOOOOOOOOOOOOOOOOOOOOOO",
"OOOOOOOOOOOOOOOOOOOOOOOOOOOOOOOO",
"OOOOOOOOOXXOOOOOOXXOOOOOOOOOOOOO",
"ooooooooXXXXooooXXXXoooooooooooo",
"XXXXXXXX    XXXX    XXXXXXXXXXXX",
"                                ",
"                                ",
"                                ",
"                                ",
"                                ",
"                                ",
"                                ",
"                                ",
"                                ",
"                                ",
"                                ",
"                                ",
"                                ",
"                                ",
"                                ",
"                                ",
"                                ",
"                                ",
"                                ",
"                                ",
"                                ",
"                                ",
"                                ",
"                                ",
"                                "
};
