/* XPM */
static char *_f44c65530104782eacf415beb4dbf87gFtpcLzCsmV52rll[] = {
/* columns rows colors chars-per-pixel */
"32 32 4 1 ",
"  c black",
". c #0E081A",
"X c #1E103A",
"o c #2B2756",
/* pixels */
"           XXXXXX               ",
"XXXXXXXXXXXooooooXXXXXXXXXXXXXXX",
"oooooooooooooooooooooooooooooooo",
"oooooooooooooooooooooooooooooooo",
"ooooooooo..oooooo..ooooooooooooo",
"XXXXXXXX....XXXX....XXXXXXXXXXXX",
"........    ....    ............",
"                                ",
"                                ",
"                                ",
"                                ",
"                                ",
"                                ",
"                                ",
"                                ",
"                                ",
"                                ",
"                                ",
"                                ",
"                                ",
"                                ",
"                                ",
"                                ",
"                                ",
"                                ",
"                                ",
"                                ",
"                                ",
"                                ",
"                                ",
"                                ",
"                                "
};
