/* XPM */
static char *result[] = {
/* columns rows colors chars-per-pixel */
"32 32 4 1 ",
"  c black",
". c #1F1338",
"X c #2B1D3E",
"o c #373257",
/* pixels */
".ooo.                           ",
"Xooo.                           ",
"Xooo.                           ",
"Xooo.                           ",
"Xooo.                           ",
"Xooo.                           ",
"Xooo.                           ",
"Xooo.                           ",
"Xooo.                           ",
"Xooo.                           ",
"Xoo..                           ",
"Xo.                             ",
"Xo.                             ",
"Xo.                             ",
"Xo.                             ",
"Xo.                             ",
"Xo.                             ",
".o.                             ",
".o.                             ",
"Xo.                             ",
"Xo.                             ",
"Xoo..                           ",
"Xooo.                           ",
"Xooo.                           ",
"Xooo.                           ",
"Xooo.                           ",
"Xooo.                           ",
"Xooo.                           ",
"Xooo.                           ",
".ooo.                           ",
".ooo.                           ",
".ooo.                           "
};
