/* XPM */
static char *result[] = {
/* columns rows colors chars-per-pixel */
"32 32 5 1 ",
"  c black",
". c #100D2B",
"X c #1E103A",
"o c #252246",
"O c #2B2756",
/* pixels */
".OOOX                           ",
"oOOOX                           ",
"oOOOX                           ",
"oOOOX                           ",
"oOOOX                           ",
"oOOOX                           ",
"oOOOX                           ",
"oOOOX                           ",
"oOOOX                           ",
"oOOOX                           ",
"oOOXX                           ",
"oOX                             ",
"oOX                             ",
"oOX                             ",
"oOX                             ",
"oOX                             ",
"oOX                             ",
".OX                             ",
".OX                             ",
"oOX                             ",
"oOX                             ",
"oOOXX                           ",
"oOOOX                           ",
"oOOOX                           ",
"oOOOX                           ",
"oOOOX                           ",
"oOOOX                           ",
"oOOOX                           ",
"oOOOX                           ",
".OOOX                           ",
".OOOX                           ",
".OOOX                           "
};
