/* XPM */
static char *_1709913506[] = {
/* columns rows colors chars-per-pixel */
"32 32 6 1 ",
"  c #100D2B",
". c #161233",
"X c #101436",
"o c #16183C",
"O c #231E4B",
"+ c #2B2756",
/* pixels */
"XXXXXXXXXXXXXXXXXX  XXXXXXXXXX  ",
"XXXXXXXXXXXXXXXXXX  XXXXXXXXXX  ",
"XX  XXXXXXX+  XXXXXXXXXXXXXXXXXX",
"XX  ++++oo++..ooooXXX+XXXXXXXXXX",
"XXXXXXX++o+.oo..ooooX+XX  ++XXXX",
"XXXXXoooo+..oo..ooooo++X ++ XXXX",
"XXXXXoooo++o..oooooooo+++XXXXXXX",
"XXXXoooooo+o..oooooo++ooooXXXXXX",
"XXXXooooooo++ooooo+++oooooooXX  ",
"XXXooooooooo++oo+++o+++oooooXX  ",
"XXXooo+Oooooo+o++oooooooooooXXXX",
"XXXooo+Oooooo++ooooooooooo+ooXXX",
"XXXoOO+ooooooo++oo..oooooo+o++XX",
"XXXoOO++oooooooo+++++oooooo++XXX",
"XXXoooo++oooooooo+oooooooo+o. XX",
"XXXooooo+ooooooooo+ooooo++o+. XX",
"  Xoooooo+oooooo+o++ooo++OoooXXX",
"  Xoooooo++oo++++oo+++++OOoooXXX",
"XXXooooooo++++ooooooooo+oooooXXX",
"XXXooooooo++oooo+oo+oooo+oooXXXX",
"XXXoooooo++ooooo++++oooo+oooXXXX",
"XXXXoooo++oooo+++++oooooo+ooXXXX",
"XXXXXXo+oooooooooo+o..ooo+oXXXXX",
"XXXXXX++oooooo++oooo..ooo+XXXXXX",
"XXXX ++Xooooooo++ooo++ooooXXXX  ",
"XXX++ XXXooooooo+++++ooooXXXXX  ",
"XXXXXXXXXXoo+++++oo++.oooXXXXXXX",
"XXXXXXXXXXX++ooooooo++++XXXXXXXX",
"XXXXXXXXXX++oooooooooXX++XXXXXXX",
"XXXXXXXXX++XXXXXXXXXXXXXXXXXXXXX",
"XXXXXXXXXX  XXXXXXXXXXXXXXXXXXXX",
"XXXXXXXXXX  XXXXXXXXXXXXXXXXXXXX"
};
