/* XPM */
static char *_da64afabd654bd6ae811d304c9ce3c0YxBKiZoBrBAAgIOx[] = {
/* columns rows colors chars-per-pixel */
"28 28 46 1 ",
"  c None",
". c #17120E",
"X c #0D1416",
"o c #1F1A16",
"O c #121518",
"+ c #372D23",
"@ c #3A312C",
"# c #3E322D",
"$ c #663D11",
"% c #402B24",
"& c #443526",
"* c #403028",
"= c #56372D",
"- c #4A3931",
"; c #574028",
": c #4A4036",
"> c #524334",
", c #534537",
"< c #5B4835",
"1 c #594A3C",
"2 c #253152",
"3 c #313E61",
"4 c #394871",
"5 c #685746",
"6 c #7B654F",
"7 c #B31E08",
"8 c red",
"9 c #B36A08",
"0 c #886B4F",
"q c #A3745B",
"w c #B39D08",
"e c #FF9700",
"r c #FFFD00",
"t c #A68665",
"y c #BC896B",
"u c #B38E75",
"i c #A0967B",
"p c #C29479",
"a c #B39E88",
"s c #B8A880",
"d c #CFA68C",
"f c #DAA88A",
"g c #DBAB8C",
"h c #F8BE9B",
"j c #F6CEB6",
"k c #EBE6E6",
/* pixels */
"          11111111          ",
"         1isississ1         ",
"       ,1iissiissss11       ",
"       @#iiisssssss-*       ",
"      O@@##iissss--**O    8 ",
"     Oi@@@@##----****iO   8 ",
"     Oi#@@@@@*******-iO  88 ",
"     11ssss******ssii11 8re ",
"      111sssssssiii111 8ere8",
"      %=1111ssii1111==8errr8",
"      %==fk111111kj==8ewaawe",
"       qffkXfjjdXkjjp89waaw9",
"        qfffjjjjjjjpg 89ww98",
"        &qfffuujjdp;  89997 ",
"       &<&yyyyyypp;0;  877  ",
"      &<<<&&+66&&;000;; $$  ",
"     &&<&&>:+tt&50;;000yyy  ",
"    &<<&&&>:+tt&00;;;0yhhp  ",
"    &&&&&&>:+t6&00;  ;yhpp  ",
"    pph &&>:+t6&00;;  ;yyy  ",
"    phh &>::+66&500;    $$  ",
"       &:++432234&;0;       ",
"      &:+4443..3444;0;      ",
"     &+o24432..23442o0;     ",
"     &+o&&432..234&&o0;     ",
"     &+&<<&32..23&<<&0;     ",
"      &<<<<&....&<<<<&      ",
"      &&&&&&    &&&&&&      "
};
