/* XPM */
static char *_28bada9dc1c4058c2bd9cfeaee0c3523I21JCp2vSWA0uq8[] = {
/* columns rows colors chars-per-pixel */
"28 28 35 1 ",
"  c None",
". c black",
"X c #121518",
"o c #3A312C",
"O c #3E322D",
"+ c #663D11",
"@ c #443526",
"# c #4E3721",
"$ c #403028",
"% c #4C3129",
"& c #56372D",
"* c #4A3931",
"= c #574028",
"- c #534537",
"; c #5B4835",
": c #594A3C",
"> c #524B46",
", c #785F47",
"< c #B31E08",
"1 c red",
"2 c #B36A08",
"3 c #886B4F",
"4 c #B39D08",
"5 c #FF9700",
"6 c #FFFD00",
"7 c #BC896B",
"8 c #B38E75",
"9 c #A0967B",
"0 c #C29479",
"q c #B39E88",
"w c #B8A880",
"e c #F8BE9B",
"r c #F7C7A9",
"t c #F6CEB6",
"y c white",
/* pixels */
"          ::::::::          ",
"         :9w9ww9w9:         ",
"       -:99ww99www9::       ",
"       oO9wwwwwwww9*$       ",
"      XooOOwwwwww**$$X      ",
"     X9ooooOO****$$$$9X     ",
"     X99ooooo$$$1$$$99X     ",
"     :9wwwwwwww1wwwww9:     ",
"      :::wwwww151ww:::      ",
"      r>::::::565:::&%      ",
"      r.yt%%%1565%%%&%      ",
"      rtttt&156661&&&%      ",
"      rtttt154qq45&&%       ",
"       88tt124qq42&%        ",
"       rrrr%124421%         ",
"           =1222<=,#        ",
"          =,31<<===#        ",
"          =333++=3=#        ",
"          =3377733=#        ",
"          =37ee03==#        ",
"          =37e00==,#        ",
"          ==,33+333,#       ",
"           =,33333,,#       ",
"           =,,333,,,#       ",
"           @#,,,,,,,,#      ",
"          @@;#,,,,,,,,#     ",
"         @;;;;#########     ",
"         @@@@@@@@           "
};
