/* XPM */
static char *Closed21709913416[] = {
/* columns rows colors chars-per-pixel */
"32 32 36 1 ",
"  c #3B3248",
". c #3B3348",
"X c #3A3349",
"o c #3B3349",
"O c #3D344A",
"+ c #3D354B",
"@ c #3D364C",
"# c #3E364C",
"$ c #3F384E",
"% c #3F384F",
"& c #403A50",
"* c #433C52",
"= c #433D54",
"- c #453D54",
"; c #463F55",
": c #453F56",
"> c #463F56",
", c #463F57",
"< c #454056",
"1 c #454057",
"2 c #474056",
"3 c #484157",
"4 c #474058",
"5 c #484258",
"6 c #494258",
"7 c #494259",
"8 c #4A4359",
"9 c #4A435A",
"0 c #49445A",
"q c #49445B",
"w c #4B445B",
"e c #4A445C",
"r c #4B465D",
"t c #4C465C",
"y c #4C465D",
"u c #4F4860",
/* pixels */
"oooooo++  &  & & &  & &  &&& && ",
"o&####$$&& & &&& &&&&&&&&&&&&&& ",
"o&yyyu$+o&++&&  &- &&&&&&----2 &",
"o&q::r$$&*&&-&& &::-wq2w&-2---  ",
"o#5**555$$XXqqq5&-uwww8wwqqy2t&&",
"#&r,2q5$$@#rqqqr &:3uww22222-w&&",
"o%ee:r5#X#@rqq55-2:---&-w:2----&",
"X%e5,455r$@544<2--:u3&&&y5222--&",
"#*r:35w45%2q22226;;;-&&&&558,,8&",
"X$q2235252242222;,;;---&&&8,,8,&",
"o%y2::252:2222226;-66&&&&&&-6;6&",
"%$r22qr2::::22226;- &&*;:&&*6;,&",
"$&t5qqX+::2222226,&&&&;,--&&883&",
"#&q4++%$:222222q&&&;;6,;,&&&88,&",
"$%r%*%*23-3222q+&&--;;;6;;;&&,3&",
"#%++$52*:3222q++-;--6,;;;;*;& &&",
"&#,:yy6-;;;;;;*-;;6;3,,3;3;&& &&",
"O&:ey88,-;;;;;-;;666663,3;;& & &",
"#&-e8,8w--;;;;8;;;;-88;6;3; &&&&",
"#&-8,,668-;;8;;;;*---66;3;3&&;; ",
"#%:e;8;8;8;;8;;;;;w6666;6;,,*6t&",
"#&-,;;;;;8*;;;;8;66;;;;6;;68;;8&",
"%%e,;8;;;;**8;8;,;;6;;6;;6;;;;w&",
"#&5:;;8;;;&*;;;;6;6;6;;;;;;;;;;&",
"#%r,3;22--*---8;;;;;;;;;6;-;;;6&",
"%%53,322-&&--;;;;8;8;6;66;-&;;,&",
"#&r,<<<<-*&-;;;;8;;;w;;;;66&;;6&",
"%&r:<2<<*&&*&-;;;;;6;;,6;66&;;6&",
"#:q2<<55&&*8;&&-8;;;,;;;;;*&8;,&",
"@#r2<2qr*;-*;;;-;;;8--;;;;-*8*&&",
"@%r222qq*---;;-;-;;w----;8& & -&",
"@%######&&&&&;& &&&- &&&&* &  &&"
};
