/* XPM */
static char *_5e3bab04feb46239a9387bf42730eefd4tFq6DqZBa2GcjY[] = {
/* columns rows colors chars-per-pixel */
"32 32 41 1 ",
"  c #221833",
". c #231834",
"X c #241935",
"o c #281C37",
"O c #261B38",
"+ c #271D3B",
"@ c #281E3B",
"# c #2A1F3D",
"$ c #2E233F",
"% c #2C2140",
"& c #2E2443",
"* c #2E2344",
"= c #2F2444",
"- c #312644",
"; c #342845",
": c #362B46",
"> c #372C47",
", c #382B47",
"< c #382C47",
"1 c #372948",
"2 c #372C48",
"3 c #382B49",
"4 c #392E4A",
"5 c #3B2E4C",
"6 c #3C2F4F",
"7 c #3D314C",
"8 c #3F354F",
"9 c #3E3350",
"0 c #3F3450",
"q c #40324D",
"w c #40354F",
"e c #423651",
"r c #433952",
"t c #443852",
"y c #433854",
"u c #463B55",
"i c #473C56",
"p c #4C405A",
"a c #4C425C",
"s c #4E445D",
"d c #524862",
/* pixels */
"66666666666666666666666666666666",
"6q777777777777777777777779eewwww",
"65&&&&&&&&&====&%*%%*%***%-7777r",
"61&&&&&&&&&&&&&&%*****=**%4e777r",
"61&&&&&&&&%#@@######%9774:4ae77r",
"61&&&&&&&&%#########-ye992eaa77r",
"61&&&&&&&%%#####%%%%4aae92eaae7r",
"61&&#++++++@@@O%4444eaaa72esaaer",
"61&%%     @+o@Xee800esaa72wssaer",
"61##      &$$$&wee88wssa8>wssaer",
"6@       .:::::wue888ssae:wssaer",
"6        X4:::2wue88wssaa:wssaar",
"6   113:::44::4wue88wssaa:wsssar",
"6   1123::e4::3wuee8wsssa18sssar",
"6  O31243:e44:38uue88sssa:8sssar",
"6:::44223:ee4:38uue88sssa:8sssar",
"6:::34313:ee4:,8uue88sssa:8sssar",
"6:::333133ee4:,8uue88sssa:8sssar",
"6:::443233ee4:,8uue88sssa:wsssar",
"6:::413233ee4:,wuue8wsssa:8sssar",
"6:::444233ee4:<8uue88sssa:8sssar",
"6:::444233ee4:<8uue88sssa:8sssar",
"6:::,,4243ee4::8uue88sssa:8sssar",
"5:::,<<>33ee4::8uee88sssa:8ssaar",
"5---444>33ee4:>8ue888ssaa:8ssaur",
"5-::444>33e44:28ue888ssau:8ssaur",
"6:::444233e44:>8ee888ssau:8ssaur",
"6:::44423344::>8ee888ssau>esaaur",
"6:::43313:4:::>ee888esaau>eaaiur",
"6:::44113:::::>e8888eaaiu>diiiir",
"6:-:4423::::::>eee787aaiu4piiiit",
"66666666666666665555666666666666"
};
