/* XPM */
static char *_38f5895b5f0419fa748af36974e9b75[] = {
/* columns rows colors chars-per-pixel */
"32 32 31 1 ",
"  c #121518",
". c #3A312C",
"X c #3E322D",
"o c #663D11",
"O c #402B24",
"+ c #443526",
"@ c #403028",
"# c #56372D",
"$ c #4A3931",
"% c #574028",
"& c #524334",
"* c #534537",
"= c #5B4835",
"- c #594A3C",
"; c #674438",
": c #685746",
"> c #606E6B",
", c #6D6C72",
"< c #B31E08",
"1 c red",
"2 c #B36A08",
"3 c #886B4F",
"4 c #B39D08",
"5 c #FF9700",
"6 c #FFFD00",
"7 c #A0967B",
"8 c #C29479",
"9 c #7D7484",
"0 c #B39E88",
"q c #B8A880",
"w c #F8BE9B",
/* pixels */
"99999999999999999999999999999999",
"99999999999999999999999999999999",
"9999999999999--------9>>99999999",
"999999999999-qq7qq7q7->>99999999",
"99999999,,--qqqq77qq77-*99999999",
"99999199,,@$qqqqqqq777X.99999999",
"999991999 @@$$qqqq77XX.. 999,,99",
"99999119 7@@@@$$$$XX....7 99,,99",
"99991511 7$@@@@@@@.....X7 999999",
"99991555-777qqqqqqq777777-999999",
"999915651---777qqqqq77---999,,99",
"999156665<;----77qq----O9999,,99",
"9991540042<;;;------###O99999999",
"9991540042<;;;;;;;;;##OO99999999",
"99,,154451;;;;;;;;;##OO999999999",
"99,,1522519%;;;;;;##OO++99999999",
"999991<<19%3%;;;;##OO+==+>999999",
"999999oo%%333%333::=+====+999999",
"99999%%%333%%3333::=&++===+99999",
"99999%3333%%%3333::=&+++===+9999",
"99999%%33%,,%333::==&+,,+==+9999",
"999999%%%9,%3333::===&+,++++9999",
"999999oo999%3333::====+99w889999",
"9999999999%333:::=====&+9ww89999",
"999999999%3::::=======&&+9999999",
"999999999%3:========&&&&+9999999",
"99999999%3:======&&&&&&&&+999999",
"99999999%:+++++=&&&+++++&+999999",
"999999,,9+====+++++=====+99999,,",
"999999,,9++++++9999++++++99999,,",
"99999999>>9999999999999999999999",
"99999999>>9999999999999999999999"
};
