/* XPM */
static char *_f1806c74f364d378c51b9d8da27e43eDIGyMfGJ26QQ3KHR[] = {
/* columns rows colors chars-per-pixel */
"32 32 48 1 ",
"  c #17120E",
". c #0D1416",
"X c #1F1A16",
"o c #121518",
"O c #372D23",
"+ c #3A312C",
"@ c #3E322D",
"# c #663D11",
"$ c #402B24",
"% c #443526",
"& c #403028",
"* c #56372D",
"= c #4A3931",
"- c #574028",
"; c #4A4036",
": c #524334",
"> c #534537",
", c #5B4835",
"< c #594A3C",
"1 c #253152",
"2 c #313E61",
"3 c #394871",
"4 c #685746",
"5 c #7B654F",
"6 c #606E6B",
"7 c #6D6C72",
"8 c #B31E08",
"9 c red",
"0 c #B36A08",
"q c #886B4F",
"w c #A3745B",
"e c #B39D08",
"r c #FF9700",
"t c #FFFD00",
"y c #A68665",
"u c #BC896B",
"i c #B38E75",
"p c #A0967B",
"a c #C29479",
"s c #7D7484",
"d c #B39E88",
"f c #B8A880",
"g c #CFA68C",
"h c #DAA88A",
"j c #DBAB8C",
"k c #F8BE9B",
"l c #F6CEB6",
"z c #EBE6E6",
/* pixels */
"ssssssssssssssssssssssssssssssss",
"ssssssssssssssssssssssssssssssss",
"sssssssssss<<<<<<<<sss66ssssssss",
"ssssssssss<pfpffpff<ss66ssssssss",
"ssssssss><ppffppffff<<ssssssssss",
"ssssssss+@pppfffffff=&ssssssssss",
"ssssssso++@@ppffff==&&ossss977ss",
"ssssssop++++@@====&&&&posss977ss",
"ssssssop@+++++&&&&&&&=poss99ssss",
"ssssss<<ffff&&&&&&ffpp<<s9trssss",
"sssssss<<<fffffffppp<<<s9rtr97ss",
"sssssss$*<<<<ffpp<<<<**9rttt97ss",
"sssssss$**hz<<<<<<zl**9reddersss",
"sssssssswhhz.hllg.zlla90edde0sss",
"ss77ssssswhhhlllllllajs90ee09sss",
"ss77sssss%whhhiillga-ss90008ssss",
"ssssssss%,%uuuuuuaa-q-77988sssss",
"sssssss%,,,%%O55%%-qqq--6##sssss",
"ssssss%%,%%:;Oyy%4q--qqquuusssss",
"sssss%,,%%%:;Oyy%qq---qukkasssss",
"sssss%%%%%%:;Oy5%qq-ss-ukaasssss",
"sssssaaks%%:;Oy5%qq--s7-uuusssss",
"sssssakks%:;;O55%4qq-ssss##sssss",
"ssssssss%;OO321123%-q-ssssssssss",
"sssssss%;O3332  2333-q-sssssssss",
"ssssss%OX13321  12331Xq-ssssssss",
"ssssss%OX%%321  123%%Xq-ssssssss",
"ssssss%O%,,%21  12%,,%q-ssssssss",
"ssssss7%,,,,%    %,,,,%sssssss77",
"ssssss7%%%%%%ssss%%%%%%sssssss77",
"ssssssss66ssssssssssssssssssssss",
"ssssssss66ssssssssssssssssssssss"
};
