/* XPM */
static char *_2c50227942f40dc8665ced5669fbcfe0sRrppruftRShncR[] = {
/* columns rows colors chars-per-pixel */
"32 32 37 1 ",
"  c black",
". c #121518",
"X c #3A312C",
"o c #3E322D",
"O c #663D11",
"+ c #443526",
"@ c #4E3721",
"# c #403028",
"$ c #4C3129",
"% c #56372D",
"& c #4A3931",
"* c #574028",
"= c #534537",
"- c #5B4835",
"; c #594A3C",
": c #524B46",
"> c #785F47",
", c #606E6B",
"< c #6D6C72",
"1 c #B31E08",
"2 c red",
"3 c #B36A08",
"4 c #886B4F",
"5 c #B39D08",
"6 c #FF9700",
"7 c #FFFD00",
"8 c #BC896B",
"9 c #B38E75",
"0 c #A0967B",
"q c #C29479",
"w c #7D7484",
"e c #B39E88",
"r c #B8A880",
"t c #F8BE9B",
"y c #F7C7A9",
"u c #F6CEB6",
"i c white",
/* pixels */
"wwwwwwwwwwwwwwwwwwwwwwwwwwwwwwww",
"wwwwwwwwwwwwwwwwwwwwwwwwwwwwwwww",
"wwwwwwwwwwww;;;;;;;;ww,,wwwwwwww",
"wwwwwwwwwww;0r0rr0r0;w,,wwwwwwww",
"wwwwwwww<=;00rr00rrr0;;wwwwwwwww",
"wwwwwwww<Xo0rrrrrrrr0&#wwwwwwwww",
"wwwwwwww.XXoorrrrrr&&##.wwww<<ww",
"wwwwwww.0XXXXoo&&&&####0.www<<ww",
"wwwwwww.00XXXXX###2###00.wwwwwww",
"wwwwwww;0rrrrrrrr2rrrrr0;wwwwwww",
"wwwwwwww;;;rrrrr262rr;;;wwww<<ww",
"wwwwwwwwy:;;;;;;676;;;%$wwww<<ww",
"wwwwwwwwy iu$$$2676$$$%$wwwwwwww",
"wwwwwwwwyuuuu%267772%%%$wwwwwwww",
"ww<<wwwwyuuuu265ee56%%$wwwwwwwww",
"ww<<wwwww99uu235ee53%$wwwwwwwwww",
"wwwwwwwwwyyyy$235532$w<<,,wwwwww",
"wwwwwwwwwwwww*23331*>@<<,,wwwwww",
"wwwwwwwwwwww*>4211***@ww<<wwwwww",
"wwwwwwwwwwww*444OO*4*@ww<<wwwwww",
"wwwwwwwwww<<*4488844*@<<wwwwwwww",
"wwwwwwwwww<<*48ttq4**@<<wwwwwwww",
"wwwwwwwwwwww*48tqq**>@wwwwwwwwww",
"wwwwwwwwwwww**>44O444>@wwwwwwwww",
"wwwwwwwwwwwww*>44444>>@wwwwwwwww",
"wwwwwwwwwwwww*>>444>>>@wwwwwwwww",
"wwwwwwwwwwwww+@>>>>>>>>@wwwwwwww",
"wwwwwwwwwwww++-@>>>>>>>>@wwwwwww",
"wwwwww<<www+----@@@@@@@@@wwwww<<",
"wwwwww<<www++++++++wwwwwwwwwww<<",
"wwwwwwww,,wwwwwwwwwwwwwwwwwwwwww",
"wwwwwwww,,wwwwwwwwwwwwwwwwwwwwww"
};
