/* XPM */
static char *d156ff7a57184540950f81b0ba119404E485IbzSi2vQGdoH[] = {
/* columns rows colors chars-per-pixel */
"32 32 27 1 ",
"  c black",
". c #121518",
"X c #372D23",
"o c #3A312C",
"O c #3E322D",
"+ c #402B24",
"@ c #443526",
"# c #533328",
"$ c #4A4036",
"% c #524334",
"& c #534537",
"* c #5B4835",
"= c #594A3C",
"- c #524B46",
"; c #606E6B",
": c #6D6C72",
"> c #8A826E",
", c #BC896B",
"< c #B38E75",
"1 c #A0967B",
"2 c #BF957C",
"3 c #C29479",
"4 c #7D7484",
"5 c #B8A880",
"6 c #DBAB8C",
"7 c #F8BE9B",
"8 c white",
/* pixels */
"44444444444444444444444444444444",
"44444444444444444444444444444444",
"444444444444========44;;44444444",
"44444444444=15>55>51=4;;44444444",
"44444444:&=1115>>5111=&444444444",
"44444444:oO1111111111Oo444444444",
"44444444.ooOO111111OOoo.4444::44",
"4444444.5ooooOOOOOOoooo5.444::44",
"4444444.55oooooooooooo55.4444444",
"4444444=5111111111111115=4444444",
"44444444===1111111111===4444::44",
"44444444+#====1111====-24444::44",
"44444444+####======+68 244444444",
"44444444+##########+666244444444",
"44::44444+#########+666244444444",
"44::444444++######+66<<444444444",
"44444444444++++++++2222:;;444444",
"4444444444@*@***X%X444::;;444444",
"4444444444@*@**XX%$X::44::444444",
"4444444444@*@**X%%$X::44::444444",
"4444444444@*@**X%%$X44::44444444",
"4444444444X@@**X%$$X44::44444444",
"4444444444X@**XX%$$X444444444444",
"444444444@,733,%%$XX444444444444",
"444444444@%,,,%%$$X4444444444444",
"444444444@%%%%%$$$X4444444444444",
"44444444X%%%%%$$$X@444;;44444444",
"4444444X%%%%$$$$X*@@44;;44444444",
"444444:XXXXXXXXX****@444444444::",
"444444::44444@@@@@@@@444444444::",
"44444444;;4444444444444444444444",
"44444444;;4444444444444444444444"
};
