/* XPM */
static char *_f17749332784591dd9f578086008cccEkarLVvQUuTU4qdg[] = {
/* columns rows colors chars-per-pixel */
"32 32 8 1 ",
"  c #090809",
". c #3F3F54",
"X c #606E6B",
"o c #6D6C72",
"O c #686583",
"+ c #7D7484",
"@ c #9B9CBA",
"# c #A4A5BB",
/* pixels */
"++++++++++++++++++++++++++++++++",
"++++++++++++++++++++++++++++++++",
"++++++++++++++++++++++XX++++++++",
"++++++++++++++++++++++XX++++++++",
"++++++++oo++++oo++++++++++++++++",
"++++++++oo++++oo++++++++++++++++",
"++++++++++++++++++XX++++++++oo++",
"+++++++++  +++++++XX+  +++++oo++",
"++++++++ O ++++  ++++ O ++++++++",
"+++++++ O ++++ OO ++++ O +++++++",
"++++++ OO +++ OOOO +++ OO ++oo++",
"+++++ .O +++++ OO +++++ O. +oo++",
"+++++ ..O      OO      O.. +++++",
"++++++  OOOOOO ## OOOOOO  ++++++",
"++oo++++ .....O##O..... ++++++++",
"++oo+++++              +++++++++",
"++++++++ ...OO @@ OO... XX++++++",
"+++++++++ ....OOOO.... oXX++++++",
"++++++++++            ++oo++++++",
"++++++++++++++ OO ++oo++oo++++++",
"++++++++++o          +oo++++++++",
"++++++++++o ..OO@@.. +oo++++++++",
"++++++++++++ ..OO.. ++++++++++++",
"+++++++++++++      +++++++++++++",
"++++++++++++++ OO ++++++++++++++",
"++++++++++++++ O@ ++++++++++++++",
"++++++++++++++ O@ ++++XX++++++++",
"++++++++++++++ O@ ++++XX++++++++",
"++++++oo+++++  O@  +++++++++++oo",
"++++++oo++++ ..O@.. ++++++++++oo",
"++++++++XX+          +++++++++++",
"++++++++XX++++++++++++++++++++++"
};
