/* XPM */
static char *_1709913506[] = {
/* columns rows colors chars-per-pixel */
"32 32 12 1 ",
"  c #090809",
". c #3F3F54",
"X c #606E6B",
"o c #6D6C72",
"O c #F90909",
"+ c #F9A809",
"@ c #F9E809",
"# c #686583",
"$ c #7D7484",
"% c #9B9CBA",
"& c #A4A5BB",
"* c #FFFEF0",
/* pixels */
"$$$$$$$$$$$$$$$$$O$$$$$$$$$$$$$$",
"$$$$$$$$$$$$$$$$O$$$$$$$$$$$$$$$",
"$$$$$$$$$$$$$$OO+O$$$$XX$$$$$$$$",
"$$$$$$$$$$$$$$O+@+O$$$XX$$$$$$$$",
"$$$$$$$$oo$$$O+@+O$$$$$$$$$$$$$$",
"$$$$$$$$oo$$O+@@+O$$$$$$$$$$$$$$",
"$$$$$$$$$$$$O+@@@+OX$$$$$$$$oo$$",
"$$$$$$$$$  $O+@*@@+O$  $$$$$oo$$",
"$$$$$$$$ # O+@*  *@+O # $$$$$$$$",
"$$$$$$$ # $O+@ ## @+O$ # $$$$$$$",
"$$$$$$ ## O+@ #### @+O ## $$oo$$",
"$$$$$ .# $$O+@ ## @+O$$ #. $oo$$",
"$$$$$ ..#      ##      #.. $$$$$",
"$$$$$$  ###### && ######  $$$$$$",
"$$oo$$$$ .....#&&#..... $$$$$$$$",
"$$oo$$$$$              $$$$$$$$$",
"$$$$$$$$ ...## %% ##... XX$$$$$$",
"$$$$$$$$$ ....####.... oXX$$$$$$",
"$$$$$$$$$$            $$oo$$$$$$",
"$$$$$$$$$$$$$$ ## $$oo$$oo$$$$$$",
"$$$$$$$$$$o          $oo$$$$$$$$",
"$$$$$$$$$$o ..##%%.. $oo$$$$$$$$",
"$$$$$$$$$$$$ ..##.. $$$$$$$$$$$$",
"$$$$$$$$$$$$$      $$$$$$$$$$$$$",
"$$$$$$$$$$$$$$ ## $$$$$$$$$$$$$$",
"$$$$$$$$$$$$$$ #% $$$$$$$$$$$$$$",
"$$$$$$$$$$$$$$ #% $$$$XX$$$$$$$$",
"$$$$$$$$$$$$$$ #% $$$$XX$$$$$$$$",
"$$$$$$oo$$$$$  #%  $$$$$$$$$$$oo",
"$$$$$$oo$$$$ ..#%.. $$$$$$$$$$oo",
"$$$$$$$$XX$          $$$$$$$$$$$",
"$$$$$$$$XX$$$$$$$$$$$$$$$$$$$$$$"
};
