/* XPM */
static char *result[] = {
/* columns rows colors chars-per-pixel */
"32 32 4 1 ",
"  c black",
". c #6B6158",
"X c #6D6568",
"o c #7D7484",
/* pixels */
"                                ",
".                               ",
"o.                              ",
"oo.                             ",
"ooo.                            ",
"oooo.                           ",
".ooo.                           ",
".ooo.                           ",
".ooo.                           ",
"Xooo.                           ",
"Xooo.                           ",
".ooo.                           ",
"Xooo.                           ",
"Xoo..                           ",
"Xo.                             ",
"Xo.                             ",
"Xo.                             ",
"Xo.                             ",
"Xo.                             ",
"Xo.                             ",
"Xo.                             ",
"Xo.                             ",
"Xo.                             ",
"Xo.                             ",
"Xoo..                           ",
"Xooo.                           ",
"Xooo.                           ",
"XXoo.                           ",
"XXoo.                           ",
".Xoo.                           ",
".ooo.                           ",
".ooo.                           "
};
