/* XPM */
static char *result[] = {
/* columns rows colors chars-per-pixel */
"32 32 4 1 ",
"  c black",
". c #1F1338",
"X c #2B1D3E",
"o c #373257",
/* pixels */
"                                ",
"                               X",
"                              Xo",
"                             Xoo",
"                            Xooo",
"                           Xoooo",
"                           Xooo.",
"                           Xooo.",
"                           Xooo.",
"                           XoooX",
"                           XoooX",
"                           Xooo.",
"                           XoooX",
"                           XXooX",
"                             XoX",
"                             XoX",
"                             XoX",
"                             XoX",
"                             XoX",
"                             XoX",
"                             XoX",
"                             XoX",
"                             XoX",
"                             XoX",
"                           XXooX",
"                           XoooX",
"                           XoooX",
"                           XooXX",
"                           XooXX",
"                           XooX.",
"                           Xooo.",
"                           Xooo."
};
