/* XPM */
static char *db6ec02383de4259ea764954c46e218eX5nsctYLzeGtttRO[] = {
/* columns rows colors chars-per-pixel */
"28 28 29 1 ",
"  c None",
". c #121518",
"X c #3A312C",
"o c #3E322D",
"O c #663D11",
"+ c #402B24",
"@ c #443526",
"# c #403028",
"$ c #56372D",
"% c #4A3931",
"& c #574028",
"* c #524334",
"= c #534537",
"- c #5B4835",
"; c #594A3C",
": c #674438",
"> c #685746",
", c #B31E08",
"< c red",
"1 c #B36A08",
"2 c #886B4F",
"3 c #B39D08",
"4 c #FF9700",
"5 c #FFFD00",
"6 c #A0967B",
"7 c #C29479",
"8 c #B39E88",
"9 c #B8A880",
"0 c #F8BE9B",
/* pixels */
"          ;;;;;;;;          ",
"         ;99699696;         ",
"       ;;9999669966;=       ",
"  <    #%9999999666oX       ",
"  <   .##%%999966ooXX.      ",
"  << .6####%%%%ooXXXX6.     ",
" <4<<.6%#######XXXXXo6.     ",
" <444;6669999999666666;     ",
" <454<;;;6669999966;;;      ",
"<45554,:;;;;6699;;;;+       ",
"<438831,:::;;;;;;$$$+       ",
"<438831,:::::::::$$++       ",
" <4334<:::::::::$$++        ",
" <4114< &::::::$$++@@       ",
"  <,,< &2&::::$$++@--@      ",
"   OO&&222&222>>-@----@     ",
"  &&&222&&2222>>-*@@---@    ",
"  &2222&&&2222>>-*@@@---@   ",
"  &&22&  &222>>--*@  @--@   ",
"   &&&  &2222>>---*@ @@@@   ",
"   OO   &2222>>----@  077   ",
"       &222>>>-----*@ 007   ",
"      &2>>>>-------**@      ",
"      &2>--------****@      ",
"     &2>------********@     ",
"     &>@@@@@-***@@@@@*@     ",
"      @----@@@@@-----@      ",
"      @@@@@@    @@@@@@      "
};
