/* XPM */
static char *_3636a4648084bd1da84e263950f7f06uMYPcAkbl2pR5nzx[] = {
/* columns rows colors chars-per-pixel */
"28 28 25 1 ",
"  c None",
". c black",
"X c #121518",
"o c #372D23",
"O c #3A312C",
"+ c #3E322D",
"@ c #402B24",
"# c #443526",
"$ c #533328",
"% c #4A4036",
"& c #524334",
"* c #534537",
"= c #5B4835",
"- c #594A3C",
"; c #524B46",
": c #8A826E",
"> c #BC896B",
", c #B38E75",
"< c #A0967B",
"1 c #BF957C",
"2 c #C29479",
"3 c #B8A880",
"4 c #DBAB8C",
"5 c #F8BE9B",
"6 c white",
/* pixels */
"          --------          ",
"         -<3:33:3<-         ",
"       *-<<<3::3<<<-*       ",
"       O+<<<<<<<<<<+O       ",
"      XOO++<<<<<<++OOX      ",
"     X3OOOO++++++OOOO3X     ",
"     X33OOOOOOOOOOOO33X     ",
"     -3<<<<<<<<<<<<<<3-     ",
"      ---<<<<<<<<<<---      ",
"      @$----<<<<----;1      ",
"      @$$$$------@46.1      ",
"      @$$$$$$$$$$@4441      ",
"       @$$$$$$$$$@4441      ",
"        @@$$$$$$@44,,       ",
"         @@@@@@@@1111       ",
"        #=#===o&o           ",
"        #=#==oo&%o          ",
"        #=#==o&&%o          ",
"        #=#==o&&%o          ",
"        o##==o&%%o          ",
"        o#==oo&%%o          ",
"       #>522>&&%oo          ",
"       #&>>>&&%%o           ",
"       #&&&&&%%%o           ",
"      o&&&&&%%%o#           ",
"     o&&&&%%%%o=##          ",
"     ooooooooo====#         ",
"           ########         "
};
