/* XPM */
static char *result[] = {
/* columns rows colors chars-per-pixel */
"32 32 5 1 ",
"  c black",
". c #100D2B",
"X c #1E103A",
"o c #252246",
"O c #2B2756",
/* pixels */
"                                ",
"X                               ",
"OX                              ",
"OOX                             ",
"OOOX                            ",
"OOOOX                           ",
".OOOX                           ",
".OOOX                           ",
".OOOX                           ",
"oOOOX                           ",
"oOOOX                           ",
".OOOX                           ",
"oOOOX                           ",
"oOOXX                           ",
"oOX                             ",
"oOX                             ",
"oOX                             ",
"oOX                             ",
"oOX                             ",
"oOX                             ",
"oOX                             ",
"oOX                             ",
"oOX                             ",
"oOX                             ",
"oOOXX                           ",
"oOOOX                           ",
"oOOOX                           ",
"ooOOX                           ",
"ooOOX                           ",
".oOOX                           ",
".OOOX                           ",
".OOOX                           "
};
