/* XPM */
static char *_1709914401[] = {
/* columns rows colors chars-per-pixel */
"32 32 3 1 ",
"  c #606E6B",
". c #6D6C72",
"X c #7D7484",
/* pixels */
"XXXXXXXXXXXXXXXXXXXXXXXXXXXXXXXX",
"XXXXXXXXXXXXXXXXXXXXXXXXXXXXXXXX",
"XXXXXXXXXXXXXXXXXXXXXX  XXXXXXXX",
"XXXXXXXXXXXXXXXXXXXXXX  XXXXXXXX",
"XXXXXXXX..XXXX..XXXXXXXXXXXXXXXX",
"XXXXXXXX..XXXX..XXXXXXXXXXXXXXXX",
"XXXXXXXXXXXXXXXXXX  XXXXXXXX..XX",
"XXXXXXXXXXXXXXXXXX  XXXXXXXX..XX",
"XXXXXXXXXXXXXXXXXXXXXXXXXXXXXXXX",
"XXXXXXXXXXXXXXXXXXXXXXXXXXXXXXXX",
"XXXXXXXXXXXXXXXXXXXXXXXXXXXX..XX",
"XXXXXXXXXXXXXXXXXXXXXXXXXXXX..XX",
"XXXXXXXX  XXXXXX..XXXXXXXXXXXXXX",
"XXXXXXXX  XXXXXX..XXXXXXXXXXXXXX",
"XX..XXXXXXXXXXXXXXXXXXXXXXXXXXXX",
"XX..XXXXXXXXXXXXXXXXXXXXXXXXXXXX",
"XXXXXXXXXXXXXXXXXXXXXX..  XXXXXX",
"XXXXXXXXXXXXXXXXXXXXXX..  XXXXXX",
"XXXXXXXXXXXXXXXXXXXX..XX..XXXXXX",
"XXXXXXXXXXXXXXXXXXXX..XX..XXXXXX",
"XXXXXXXXXX..XXXXXXXXXX..XXXXXXXX",
"XXXXXXXXXX..XXXXXXXXXX..XXXXXXXX",
"XXXXXXXXXXXXXXXXXXXXXXXXXXXXXXXX",
"XXXXXXXXXXXXXXXXXXXXXXXXXXXXXXXX",
"XXXXXXXXXXXXXXXXXXXXXXXXXXXXXXXX",
"XXXXXXXXXXXXXXXXXXXXXXXXXXXXXXXX",
"XXXXXXXXXXXXXXXX..XXXX  XXXXXXXX",
"XXXXXXXXXXXXXXXX..XXXX  XXXXXXXX",
"XXXXXX..XXXXXXXXXXXXXXXXXXXXXX..",
"XXXXXX..XXXXXXXXXXXXXXXXXXXXXX..",
"XXXXXXXX  XXXXXXXXXXXXXXXXXXXXXX",
"XXXXXXXX  XXXXXXXXXXXXXXXXXXXXXX"
};
