/* XPM */
static char *_1709914402[] = {
/* columns rows colors chars-per-pixel */
"32 32 3 1 ",
"  c #100D2B",
". c #101436",
"X c #201C49",
/* pixels */
"..................  ..........  ",
"..................  ..........  ",
"..  ........  ..................",
"..  ........  ..................",
"..........  ..  ........    ....",
"..........  ..  ........    ....",
"............  ..................",
"............  ..................",
"..............................  ",
"..............................  ",
"......XX........................",
"......XX........................",
"....XX............  ............",
"....XX............  ............",
"............................  ..",
"............................  ..",
"  ......................XX......",
"  ......................XX......",
"..........  ....................",
"..........  ....................",
"................................",
"................................",
"....................  ..........",
"....................  ..........",
"....  ........................  ",
"....  ........................  ",
"....................  ..........",
"....................  ..........",
"................................",
"................................",
"..........  ....................",
"..........  ...................."
};
