/* XPM */
static char *_1709913507[] = {
/* columns rows colors chars-per-pixel */
"32 32 7 1 ",
"  c #090809",
". c #122334",
"X c #1E213B",
"o c #2D2D3E",
"O c #2D284C",
"+ c #686583",
"@ c #9B9CBA",
/* pixels */
"OOOOOOOOOOOOOOOOOOOOOOOOOOOOOOOO",
"OOOOOOOOOOOOOOOOOOOOOOOOOOOOOOOO",
"OOOOOOOOOOOOOOOOOOOOOO..OOOOOOOO",
"OOOOOOOOOOOOOOOOOOOOOO..OOOOOOOO",
"OOOOOOOOXXOOOOXXOOOOOOOOOOOOOOOO",
"OOOOOOOOXXOOOOXXOOOOOOOOOOOOOOOO",
"OOOOOOOOOOOOOOOOOO..OOOOOOOOXXOO",
"OOOOOOOOO  OOOOOOO..O  OOOOOXXOO",
"OOOOOOOO o OOOO  OOOO o OOOOOOOO",
"OOOOOOO o OOOO oo OOOO o OOOOOOO",
"OOOOOO oo OOO oooo OOO oo OOXXOO",
"OOOOO oo OOOOO oo OOOOO oo OXXOO",
"OOOOO ooo      ++      ooo OOOOO",
"OOOOOO  oooooo @@ oooooo  OOOOOO",
"OOXXOOOO     o+@@+o     OOOOOOOO",
"OOXXOOOOO              OOOOOOOOO",
"OOOOOOOO ooo++ @@ ++ooo ..OOOOOO",
"OOOOOOOOO oooo++++oooo X..OOOOOO",
"OOOOOOOOOO            OOXXOOOOOO",
"OOOOOOOOOOOOOO ++ OOXXOOXXOOOOOO",
"OOOOOOOOOOX          OXXOOOOOOOO",
"OOOOOOOOOOX oo++@@oo OXXOOOOOOOO",
"OOOOOOOOOOOO oo++oo OOOOOOOOOOOO",
"OOOOOOOOOOOOO      OOOOOOOOOOOOO",
"OOOOOOOOOOOOOO ++ OOOOOOOOOOOOOO",
"OOOOOOOOOOOOOO +@ OOOOOOOOOOOOOO",
"OOOOOOOOOOOOOO +@ OOOO..OOOOOOOO",
"OOOOOOOOOOOOOO +@ OOOO..OOOOOOOO",
"OOOOOOXXOOOOO  +@  OOOOOOOOOOOXX",
"OOOOOOXXOOOO oo+@oo OOOOOOOOOOXX",
"OOOOOOOO..O          OOOOOOOOOOO",
"OOOOOOOO..OOOOOOOOOOOOOOOOOOOOOO"
};
